<svg xmlns="http://www.w3.org/2000/svg" viewBox="0 0 1600 400" preserveAspectRatio="xMidYMid slice">
<defs>
  <radialGradient id="w" cx="16%" cy="2%" r="120%">
    <stop offset="0%" stop-color="#e8eefa"/><stop offset="46%" stop-color="#f6f8fd"/><stop offset="100%" stop-color="#ffffff"/>
  </radialGradient>
  <radialGradient id="b" cx="50%" cy="50%" r="50%">
    <stop offset="0%" stop-color="#2B5FA8" stop-opacity="0.22"/><stop offset="70%" stop-color="#2B5FA8" stop-opacity="0.05"/><stop offset="100%" stop-color="#2B5FA8" stop-opacity="0"/>
  </radialGradient>
  <radialGradient id="b2" cx="50%" cy="50%" r="50%">
    <stop offset="0%" stop-color="#1D4479" stop-opacity="0.14"/><stop offset="100%" stop-color="#1D4479" stop-opacity="0"/>
  </radialGradient>
  <filter id="g" x="0" y="0" width="100%" height="100%">
    <feTurbulence type="fractalNoise" baseFrequency="0.9" numOctaves="3" seed="17"/>
    <feColorMatrix type="saturate" values="0"/><feComponentTransfer><feFuncA type="linear" slope="0.05"/></feComponentTransfer>
  </filter>
</defs>
<rect width="1600" height="400" fill="url(#w)"/>
<ellipse cx="1320" cy="50" rx="430" ry="310" fill="url(#b)"/>
<ellipse cx="180" cy="380" rx="380" ry="240" fill="url(#b2)"/>
<line x1="90" y1="70" x2="235" y2="70" stroke="#2B5FA8" stroke-opacity="0.17" stroke-width="1.4"/><line x1="90" y1="70" x2="162" y2="162" stroke="#2B5FA8" stroke-opacity="0.17" stroke-width="1.4"/><line x1="235" y1="70" x2="380" y2="70" stroke="#2B5FA8" stroke-opacity="0.17" stroke-width="1.4"/><line x1="235" y1="70" x2="162" y2="162" stroke="#2B5FA8" stroke-opacity="0.17" stroke-width="1.4"/><line x1="235" y1="70" x2="307" y2="162" stroke="#2B5FA8" stroke-opacity="0.17" stroke-width="1.4"/><line x1="380" y1="70" x2="525" y2="70" stroke="#2B5FA8" stroke-opacity="0.17" stroke-width="1.4"/><line x1="380" y1="70" x2="307" y2="162" stroke="#2B5FA8" stroke-opacity="0.17" stroke-width="1.4"/><line x1="380" y1="70" x2="452" y2="162" stroke="#2B5FA8" stroke-opacity="0.17" stroke-width="1.4"/><line x1="525" y1="70" x2="670" y2="70" stroke="#2B5FA8" stroke-opacity="0.17" stroke-width="1.4"/><line x1="525" y1="70" x2="452" y2="162" stroke="#2B5FA8" stroke-opacity="0.17" stroke-width="1.4"/><line x1="525" y1="70" x2="597" y2="162" stroke="#2B5FA8" stroke-opacity="0.17" stroke-width="1.4"/><line x1="670" y1="70" x2="815" y2="70" stroke="#2B5FA8" stroke-opacity="0.17" stroke-width="1.4"/><line x1="670" y1="70" x2="597" y2="162" stroke="#2B5FA8" stroke-opacity="0.17" stroke-width="1.4"/><line x1="670" y1="70" x2="742" y2="162" stroke="#2B5FA8" stroke-opacity="0.17" stroke-width="1.4"/><line x1="815" y1="70" x2="960" y2="70" stroke="#2B5FA8" stroke-opacity="0.17" stroke-width="1.4"/><line x1="815" y1="70" x2="742" y2="162" stroke="#2B5FA8" stroke-opacity="0.17" stroke-width="1.4"/><line x1="815" y1="70" x2="887" y2="162" stroke="#2B5FA8" stroke-opacity="0.17" stroke-width="1.4"/><line x1="960" y1="70" x2="1105" y2="70" stroke="#2B5FA8" stroke-opacity="0.17" stroke-width="1.4"/><line x1="960" y1="70" x2="887" y2="162" stroke="#2B5FA8" stroke-opacity="0.17" stroke-width="1.4"/><line x1="960" y1="70" x2="1032" y2="162" stroke="#2B5FA8" stroke-opacity="0.17" stroke-width="1.4"/><line x1="1105" y1="70" x2="1250" y2="70" stroke="#2B5FA8" stroke-opacity="0.17" stroke-width="1.4"/><line x1="1105" y1="70" x2="1032" y2="162" stroke="#2B5FA8" stroke-opacity="0.17" stroke-width="1.4"/><line x1="1105" y1="70" x2="1177" y2="162" stroke="#2B5FA8" stroke-opacity="0.17" stroke-width="1.4"/><line x1="1250" y1="70" x2="1395" y2="70" stroke="#2B5FA8" stroke-opacity="0.17" stroke-width="1.4"/><line x1="1250" y1="70" x2="1177" y2="162" stroke="#2B5FA8" stroke-opacity="0.17" stroke-width="1.4"/><line x1="1250" y1="70" x2="1322" y2="162" stroke="#2B5FA8" stroke-opacity="0.17" stroke-width="1.4"/><line x1="1395" y1="70" x2="1540" y2="70" stroke="#2B5FA8" stroke-opacity="0.17" stroke-width="1.4"/><line x1="1395" y1="70" x2="1322" y2="162" stroke="#2B5FA8" stroke-opacity="0.17" stroke-width="1.4"/><line x1="1395" y1="70" x2="1467" y2="162" stroke="#2B5FA8" stroke-opacity="0.17" stroke-width="1.4"/><line x1="1540" y1="70" x2="1467" y2="162" stroke="#2B5FA8" stroke-opacity="0.17" stroke-width="1.4"/><line x1="1540" y1="70" x2="1612" y2="162" stroke="#2B5FA8" stroke-opacity="0.17" stroke-width="1.4"/><line x1="162" y1="162" x2="307" y2="162" stroke="#2B5FA8" stroke-opacity="0.17" stroke-width="1.4"/><line x1="162" y1="162" x2="90" y2="254" stroke="#2B5FA8" stroke-opacity="0.17" stroke-width="1.4"/><line x1="162" y1="162" x2="235" y2="254" stroke="#2B5FA8" stroke-opacity="0.17" stroke-width="1.4"/><line x1="307" y1="162" x2="452" y2="162" stroke="#2B5FA8" stroke-opacity="0.17" stroke-width="1.4"/><line x1="307" y1="162" x2="235" y2="254" stroke="#2B5FA8" stroke-opacity="0.17" stroke-width="1.4"/><line x1="307" y1="162" x2="380" y2="254" stroke="#2B5FA8" stroke-opacity="0.17" stroke-width="1.4"/><line x1="452" y1="162" x2="597" y2="162" stroke="#2B5FA8" stroke-opacity="0.17" stroke-width="1.4"/><line x1="452" y1="162" x2="380" y2="254" stroke="#2B5FA8" stroke-opacity="0.17" stroke-width="1.4"/><line x1="452" y1="162" x2="525" y2="254" stroke="#2B5FA8" stroke-opacity="0.17" stroke-width="1.4"/><line x1="597" y1="162" x2="742" y2="162" stroke="#2B5FA8" stroke-opacity="0.17" stroke-width="1.4"/><line x1="597" y1="162" x2="525" y2="254" stroke="#2B5FA8" stroke-opacity="0.17" stroke-width="1.4"/><line x1="597" y1="162" x2="670" y2="254" stroke="#2B5FA8" stroke-opacity="0.17" stroke-width="1.4"/><line x1="742" y1="162" x2="887" y2="162" stroke="#2B5FA8" stroke-opacity="0.17" stroke-width="1.4"/><line x1="742" y1="162" x2="670" y2="254" stroke="#2B5FA8" stroke-opacity="0.17" stroke-width="1.4"/><line x1="742" y1="162" x2="815" y2="254" stroke="#2B5FA8" stroke-opacity="0.17" stroke-width="1.4"/><line x1="887" y1="162" x2="1032" y2="162" stroke="#2B5FA8" stroke-opacity="0.17" stroke-width="1.4"/><line x1="887" y1="162" x2="815" y2="254" stroke="#2B5FA8" stroke-opacity="0.17" stroke-width="1.4"/><line x1="887" y1="162" x2="960" y2="254" stroke="#2B5FA8" stroke-opacity="0.17" stroke-width="1.4"/><line x1="1032" y1="162" x2="1177" y2="162" stroke="#2B5FA8" stroke-opacity="0.17" stroke-width="1.4"/><line x1="1032" y1="162" x2="960" y2="254" stroke="#2B5FA8" stroke-opacity="0.17" stroke-width="1.4"/><line x1="1032" y1="162" x2="1105" y2="254" stroke="#2B5FA8" stroke-opacity="0.17" stroke-width="1.4"/><line x1="1177" y1="162" x2="1322" y2="162" stroke="#2B5FA8" stroke-opacity="0.17" stroke-width="1.4"/><line x1="1177" y1="162" x2="1105" y2="254" stroke="#2B5FA8" stroke-opacity="0.17" stroke-width="1.4"/><line x1="1177" y1="162" x2="1250" y2="254" stroke="#2B5FA8" stroke-opacity="0.17" stroke-width="1.4"/><line x1="1322" y1="162" x2="1467" y2="162" stroke="#2B5FA8" stroke-opacity="0.17" stroke-width="1.4"/><line x1="1322" y1="162" x2="1250" y2="254" stroke="#2B5FA8" stroke-opacity="0.17" stroke-width="1.4"/><line x1="1322" y1="162" x2="1395" y2="254" stroke="#2B5FA8" stroke-opacity="0.17" stroke-width="1.4"/><line x1="1467" y1="162" x2="1612" y2="162" stroke="#2B5FA8" stroke-opacity="0.17" stroke-width="1.4"/><line x1="1467" y1="162" x2="1395" y2="254" stroke="#2B5FA8" stroke-opacity="0.17" stroke-width="1.4"/><line x1="1467" y1="162" x2="1540" y2="254" stroke="#2B5FA8" stroke-opacity="0.17" stroke-width="1.4"/><line x1="1612" y1="162" x2="1540" y2="254" stroke="#2B5FA8" stroke-opacity="0.17" stroke-width="1.4"/><line x1="90" y1="254" x2="235" y2="254" stroke="#2B5FA8" stroke-opacity="0.17" stroke-width="1.4"/><line x1="90" y1="254" x2="162" y2="346" stroke="#2B5FA8" stroke-opacity="0.17" stroke-width="1.4"/><line x1="235" y1="254" x2="380" y2="254" stroke="#2B5FA8" stroke-opacity="0.17" stroke-width="1.4"/><line x1="235" y1="254" x2="162" y2="346" stroke="#2B5FA8" stroke-opacity="0.17" stroke-width="1.4"/><line x1="235" y1="254" x2="307" y2="346" stroke="#2B5FA8" stroke-opacity="0.17" stroke-width="1.4"/><line x1="380" y1="254" x2="525" y2="254" stroke="#2B5FA8" stroke-opacity="0.17" stroke-width="1.4"/><line x1="380" y1="254" x2="307" y2="346" stroke="#2B5FA8" stroke-opacity="0.17" stroke-width="1.4"/><line x1="380" y1="254" x2="452" y2="346" stroke="#2B5FA8" stroke-opacity="0.17" stroke-width="1.4"/><line x1="525" y1="254" x2="670" y2="254" stroke="#2B5FA8" stroke-opacity="0.17" stroke-width="1.4"/><line x1="525" y1="254" x2="452" y2="346" stroke="#2B5FA8" stroke-opacity="0.17" stroke-width="1.4"/><line x1="525" y1="254" x2="597" y2="346" stroke="#2B5FA8" stroke-opacity="0.17" stroke-width="1.4"/><line x1="670" y1="254" x2="815" y2="254" stroke="#2B5FA8" stroke-opacity="0.17" stroke-width="1.4"/><line x1="670" y1="254" x2="597" y2="346" stroke="#2B5FA8" stroke-opacity="0.17" stroke-width="1.4"/><line x1="670" y1="254" x2="742" y2="346" stroke="#2B5FA8" stroke-opacity="0.17" stroke-width="1.4"/><line x1="815" y1="254" x2="960" y2="254" stroke="#2B5FA8" stroke-opacity="0.17" stroke-width="1.4"/><line x1="815" y1="254" x2="742" y2="346" stroke="#2B5FA8" stroke-opacity="0.17" stroke-width="1.4"/><line x1="815" y1="254" x2="887" y2="346" stroke="#2B5FA8" stroke-opacity="0.17" stroke-width="1.4"/><line x1="960" y1="254" x2="1105" y2="254" stroke="#2B5FA8" stroke-opacity="0.17" stroke-width="1.4"/><line x1="960" y1="254" x2="887" y2="346" stroke="#2B5FA8" stroke-opacity="0.17" stroke-width="1.4"/><line x1="960" y1="254" x2="1032" y2="346" stroke="#2B5FA8" stroke-opacity="0.17" stroke-width="1.4"/><line x1="1105" y1="254" x2="1250" y2="254" stroke="#2B5FA8" stroke-opacity="0.17" stroke-width="1.4"/><line x1="1105" y1="254" x2="1032" y2="346" stroke="#2B5FA8" stroke-opacity="0.17" stroke-width="1.4"/><line x1="1105" y1="254" x2="1177" y2="346" stroke="#2B5FA8" stroke-opacity="0.17" stroke-width="1.4"/><line x1="1250" y1="254" x2="1395" y2="254" stroke="#2B5FA8" stroke-opacity="0.17" stroke-width="1.4"/><line x1="1250" y1="254" x2="1177" y2="346" stroke="#2B5FA8" stroke-opacity="0.17" stroke-width="1.4"/><line x1="1250" y1="254" x2="1322" y2="346" stroke="#2B5FA8" stroke-opacity="0.17" stroke-width="1.4"/><line x1="1395" y1="254" x2="1540" y2="254" stroke="#2B5FA8" stroke-opacity="0.17" stroke-width="1.4"/><line x1="1395" y1="254" x2="1322" y2="346" stroke="#2B5FA8" stroke-opacity="0.17" stroke-width="1.4"/><line x1="1395" y1="254" x2="1467" y2="346" stroke="#2B5FA8" stroke-opacity="0.17" stroke-width="1.4"/><line x1="1540" y1="254" x2="1467" y2="346" stroke="#2B5FA8" stroke-opacity="0.17" stroke-width="1.4"/><line x1="1540" y1="254" x2="1612" y2="346" stroke="#2B5FA8" stroke-opacity="0.17" stroke-width="1.4"/><line x1="162" y1="346" x2="307" y2="346" stroke="#2B5FA8" stroke-opacity="0.17" stroke-width="1.4"/><line x1="307" y1="346" x2="452" y2="346" stroke="#2B5FA8" stroke-opacity="0.17" stroke-width="1.4"/><line x1="452" y1="346" x2="597" y2="346" stroke="#2B5FA8" stroke-opacity="0.17" stroke-width="1.4"/><line x1="597" y1="346" x2="742" y2="346" stroke="#2B5FA8" stroke-opacity="0.17" stroke-width="1.4"/><line x1="742" y1="346" x2="887" y2="346" stroke="#2B5FA8" stroke-opacity="0.17" stroke-width="1.4"/><line x1="887" y1="346" x2="1032" y2="346" stroke="#2B5FA8" stroke-opacity="0.17" stroke-width="1.4"/><line x1="1032" y1="346" x2="1177" y2="346" stroke="#2B5FA8" stroke-opacity="0.17" stroke-width="1.4"/><line x1="1177" y1="346" x2="1322" y2="346" stroke="#2B5FA8" stroke-opacity="0.17" stroke-width="1.4"/><line x1="1322" y1="346" x2="1467" y2="346" stroke="#2B5FA8" stroke-opacity="0.17" stroke-width="1.4"/><line x1="1467" y1="346" x2="1612" y2="346" stroke="#2B5FA8" stroke-opacity="0.17" stroke-width="1.4"/><circle cx="90" cy="70" r="8" fill="#2B5FA8" fill-opacity="0.55" stroke="#2B5FA8" stroke-opacity="0.5" stroke-width="1.6"/><circle cx="235" cy="70" r="5" fill="#ffffff" fill-opacity="1" stroke="#2B5FA8" stroke-opacity="0.5" stroke-width="1.6"/><circle cx="380" cy="70" r="5" fill="#ffffff" fill-opacity="1" stroke="#2B5FA8" stroke-opacity="0.5" stroke-width="1.6"/><circle cx="525" cy="70" r="5" fill="#ffffff" fill-opacity="1" stroke="#2B5FA8" stroke-opacity="0.5" stroke-width="1.6"/><circle cx="670" cy="70" r="5" fill="#ffffff" fill-opacity="1" stroke="#2B5FA8" stroke-opacity="0.5" stroke-width="1.6"/><circle cx="815" cy="70" r="8" fill="#2B5FA8" fill-opacity="0.55" stroke="#2B5FA8" stroke-opacity="0.5" stroke-width="1.6"/><circle cx="960" cy="70" r="5" fill="#ffffff" fill-opacity="1" stroke="#2B5FA8" stroke-opacity="0.5" stroke-width="1.6"/><circle cx="1105" cy="70" r="5" fill="#ffffff" fill-opacity="1" stroke="#2B5FA8" stroke-opacity="0.5" stroke-width="1.6"/><circle cx="1250" cy="70" r="5" fill="#ffffff" fill-opacity="1" stroke="#2B5FA8" stroke-opacity="0.5" stroke-width="1.6"/><circle cx="1395" cy="70" r="5" fill="#ffffff" fill-opacity="1" stroke="#2B5FA8" stroke-opacity="0.5" stroke-width="1.6"/><circle cx="1540" cy="70" r="8" fill="#2B5FA8" fill-opacity="0.55" stroke="#2B5FA8" stroke-opacity="0.5" stroke-width="1.6"/><circle cx="162" cy="162" r="5" fill="#ffffff" fill-opacity="1" stroke="#2B5FA8" stroke-opacity="0.5" stroke-width="1.6"/><circle cx="307" cy="162" r="5" fill="#ffffff" fill-opacity="1" stroke="#2B5FA8" stroke-opacity="0.5" stroke-width="1.6"/><circle cx="452" cy="162" r="5" fill="#ffffff" fill-opacity="1" stroke="#2B5FA8" stroke-opacity="0.5" stroke-width="1.6"/><circle cx="597" cy="162" r="5" fill="#ffffff" fill-opacity="1" stroke="#2B5FA8" stroke-opacity="0.5" stroke-width="1.6"/><circle cx="742" cy="162" r="8" fill="#2B5FA8" fill-opacity="0.55" stroke="#2B5FA8" stroke-opacity="0.5" stroke-width="1.6"/><circle cx="887" cy="162" r="5" fill="#ffffff" fill-opacity="1" stroke="#2B5FA8" stroke-opacity="0.5" stroke-width="1.6"/><circle cx="1032" cy="162" r="5" fill="#ffffff" fill-opacity="1" stroke="#2B5FA8" stroke-opacity="0.5" stroke-width="1.6"/><circle cx="1177" cy="162" r="5" fill="#ffffff" fill-opacity="1" stroke="#2B5FA8" stroke-opacity="0.5" stroke-width="1.6"/><circle cx="1322" cy="162" r="5" fill="#ffffff" fill-opacity="1" stroke="#2B5FA8" stroke-opacity="0.5" stroke-width="1.6"/><circle cx="1467" cy="162" r="8" fill="#2B5FA8" fill-opacity="0.55" stroke="#2B5FA8" stroke-opacity="0.5" stroke-width="1.6"/><circle cx="1612" cy="162" r="5" fill="#ffffff" fill-opacity="1" stroke="#2B5FA8" stroke-opacity="0.5" stroke-width="1.6"/><circle cx="90" cy="254" r="5" fill="#ffffff" fill-opacity="1" stroke="#2B5FA8" stroke-opacity="0.5" stroke-width="1.6"/><circle cx="235" cy="254" r="5" fill="#ffffff" fill-opacity="1" stroke="#2B5FA8" stroke-opacity="0.5" stroke-width="1.6"/><circle cx="380" cy="254" r="5" fill="#ffffff" fill-opacity="1" stroke="#2B5FA8" stroke-opacity="0.5" stroke-width="1.6"/><circle cx="525" cy="254" r="8" fill="#2B5FA8" fill-opacity="0.55" stroke="#2B5FA8" stroke-opacity="0.5" stroke-width="1.6"/><circle cx="670" cy="254" r="5" fill="#ffffff" fill-opacity="1" stroke="#2B5FA8" stroke-opacity="0.5" stroke-width="1.6"/><circle cx="815" cy="254" r="5" fill="#ffffff" fill-opacity="1" stroke="#2B5FA8" stroke-opacity="0.5" stroke-width="1.6"/><circle cx="960" cy="254" r="5" fill="#ffffff" fill-opacity="1" stroke="#2B5FA8" stroke-opacity="0.5" stroke-width="1.6"/><circle cx="1105" cy="254" r="5" fill="#ffffff" fill-opacity="1" stroke="#2B5FA8" stroke-opacity="0.5" stroke-width="1.6"/><circle cx="1250" cy="254" r="8" fill="#2B5FA8" fill-opacity="0.55" stroke="#2B5FA8" stroke-opacity="0.5" stroke-width="1.6"/><circle cx="1395" cy="254" r="5" fill="#ffffff" fill-opacity="1" stroke="#2B5FA8" stroke-opacity="0.5" stroke-width="1.6"/><circle cx="1540" cy="254" r="5" fill="#ffffff" fill-opacity="1" stroke="#2B5FA8" stroke-opacity="0.5" stroke-width="1.6"/><circle cx="162" cy="346" r="5" fill="#ffffff" fill-opacity="1" stroke="#2B5FA8" stroke-opacity="0.5" stroke-width="1.6"/><circle cx="307" cy="346" r="5" fill="#ffffff" fill-opacity="1" stroke="#2B5FA8" stroke-opacity="0.5" stroke-width="1.6"/><circle cx="452" cy="346" r="8" fill="#2B5FA8" fill-opacity="0.55" stroke="#2B5FA8" stroke-opacity="0.5" stroke-width="1.6"/><circle cx="597" cy="346" r="5" fill="#ffffff" fill-opacity="1" stroke="#2B5FA8" stroke-opacity="0.5" stroke-width="1.6"/><circle cx="742" cy="346" r="5" fill="#ffffff" fill-opacity="1" stroke="#2B5FA8" stroke-opacity="0.5" stroke-width="1.6"/><circle cx="887" cy="346" r="5" fill="#ffffff" fill-opacity="1" stroke="#2B5FA8" stroke-opacity="0.5" stroke-width="1.6"/><circle cx="1032" cy="346" r="5" fill="#ffffff" fill-opacity="1" stroke="#2B5FA8" stroke-opacity="0.5" stroke-width="1.6"/><circle cx="1177" cy="346" r="8" fill="#2B5FA8" fill-opacity="0.55" stroke="#2B5FA8" stroke-opacity="0.5" stroke-width="1.6"/><circle cx="1322" cy="346" r="5" fill="#ffffff" fill-opacity="1" stroke="#2B5FA8" stroke-opacity="0.5" stroke-width="1.6"/><circle cx="1467" cy="346" r="5" fill="#ffffff" fill-opacity="1" stroke="#2B5FA8" stroke-opacity="0.5" stroke-width="1.6"/><circle cx="1612" cy="346" r="5" fill="#ffffff" fill-opacity="1" stroke="#2B5FA8" stroke-opacity="0.5" stroke-width="1.6"/>
<rect width="1600" height="400" filter="url(#g)" opacity="0.55"/>
</svg>